# xmcd
#
# Track frame offsets:
#	150
#	12094
#	26585
#	39303
#	53597
#	69085
#	81220
#	92587
#	106750
#	118453
#	133168
#	148658
#
# Disc length: 2139 seconds
# Revision: 2
# Processed by: cddbd v1.5.2PL0 Copyright (c) Steve Scherf et al.
# Submitted via: dBpowerAMP V12.0
#
DISCID=9608590c
DTITLE=Junior Sisk and Ramblers Choice - Heartaches and Dreams
DYEAR=2010
DGENRE=Country
TTITLE0=Train Without A Track
TTITLE1=Humble Man
TTITLE2=Working Hard Ain't Hardly Working Anymore
TTITLE3=Don't You Cry
TTITLE4=A Black Hearse Following Me
TTITLE5=The Lowest Valley
TTITLE6=Heartaches And Dreams
TTITLE7=Bullets Always Win
TTITLE8=You Broke Your Promise
TTITLE9=Guns, Coins And Jewelry
TTITLE10=The Laugh's On Me
TTITLE11=Let The Light Shine Down
EXTD=
EXTT0=
EXTT1=
EXTT2=
EXTT3=
EXTT4=
EXTT5=
EXTT6=
EXTT7=
EXTT8=
EXTT9=
EXTT10=
EXTT11=
PLAYORDER=
